{"title":"Hotel Transylvania 2012 BDRip XviD-ALLiANCE","uid":8002439,"size":733067270,"categoryP":"video","categoryS":"movies","magnet":"?xt=urn:btih:7cb272564a3991c950110c520602b2de6eeda982&amp;dn=Hotel+Transylvania+2012+BDRip+XviD-ALLiANCE&amp;tr=udp%3A%2F%2Ftracker.openbittorrent.com%3A80&amp;tr=udp%3A%2F%2Fopen.demonii.com%3A1337&amp;tr=udp%3A%2F%2Ftracker.coppersurfer.tk%3A6969&amp;tr=udp%3A%2F%2Fexodus.desync.com%3A6969","seeders":0,"leechers":1,"uploader":"xxxlavalxxx","files":2,"time":1357806331,"description":" &lt;a href=&quot;\nhttp://www.shotpix.com/images/09682813214963418128.jpg&quot; rel=&quot;nofollow&quot; target=&quot;_NEW&quot;&gt;\nhttp://www.shotpix.com/images/09682813214963418128.jpg&lt;/a&gt;\n\n\n &lt;a href=&quot;\nhttp://www.imdb.com/title/tt0837562/&quot; rel=&quot;nofollow&quot; target=&quot;_NEW&quot;&gt;\nhttp://www.imdb.com/title/tt0837562/&lt;/a&gt;\n\n\nPlot: Dracula, who operates a high-end resort away from the human world, goes into overprotective mode when a boy discovers the resort and falls for the count's teen-aged daughter.\n \n\n\nDirector: \nGenndy Tartakovsky\n\n Writers: \nPeter Baynham (screenplay), Robert Smigel (screenplay)\n\nStars:\n Adam Sandler, Kevin James and Andy Samberg\n\nGenres:\n Animation | Comedy | Family \n\nCountry:\nUSA \n\nLanguage:\nEnglish \n\nFormat                                   : AVI\nFormat/Info                              : Audio Video Interleave\nFile size                                : 699 MiB\nDuration                                 : 1h 31mn\nOverall bit rate mode                    : Variable\nOverall bit rate                         : 1 068 Kbps\nWriting application                      : VirtualDubMod 1.5.10.2 (build 2540/release)\nWriting library                          : VirtualDubMod build 2540/release\n\nVideo\nID                                       : 0\nFormat                                   : MPEG-4 Visual\nFormat profile                           : Advanced Simple@L5\nFormat settings, BVOP                    : 2\nFormat settings, QPel                    : No\nFormat settings, GMC                     : No warppoints\nFormat settings, Matrix                  : Default (H.263)\nCodec ID                                 : XVID\nCodec ID/Hint                            : XviD\nDuration                                 : 1h 31mn\nBit rate                                 : 933 Kbps\nWidth                                    : 640 pixels\nHeight                                   : 352 pixels\nDisplay aspect ratio                     : 16:9\nFrame rate                               : 23.976 fps\nColor space                              : YUV\nChroma subsampling                       : 4:2:0\nBit depth                                : 8 bits\nScan type                                : Progressive\nCompression mode                         : Lossy\nBits/(Pixel*Frame)                       : 0.173\nStream size                              : 611 MiB (87%)\nWriting library                          : XviD 61\n\nAudio\nID                                       : 1\nFormat                                   : MPEG Audio\nFormat version                           : Version 1\nFormat profile                           : Layer 3\nMode                                     : Joint stereo\nMode extension                           : MS Stereo\nCodec ID                                 : 55\nCodec ID/Hint                            : MP3\nDuration                                 : 1h 31mn\nBit rate mode                            : Variable\nBit rate                                 : 128 Kbps\nChannel(s)                               : 2 channels\nSampling rate                            : 48.0 KHz\nCompression mode                         : Lossy\nStream size                              : 80.2 MiB (11%)\nAlignment                                : Aligned on interleaves\nInterleave, duration                     : 24 ms (0.58 video frame)\nInterleave, preload duration             : 498 ms\nWriting library                          : LAME3.98 \nEncoding settings                        : -m j -V 4 -q 2 -lowpass 17 --abr 128\n\n\n &lt;a href=&quot;\nhttp://www.shotpix.com/images/13172475034012719665.png&quot; rel=&quot;nofollow&quot; target=&quot;_NEW&quot;&gt;\nhttp://www.shotpix.com/images/13172475034012719665.png&lt;/a&gt; &lt;a href=&quot;\nhttp://www.shotpix.com/images/31049219621134369921.png&quot; rel=&quot;nofollow&quot; target=&quot;_NEW&quot;&gt;\nhttp://www.shotpix.com/images/31049219621134369921.png&lt;/a&gt; &lt;a href=&quot;\nhttp://www.shotpix.com/images/28340680027274617929.png&quot; rel=&quot;nofollow&quot; target=&quot;_NEW&quot;&gt;\nhttp://www.shotpix.com/images/28340680027274617929.png&lt;/a&gt; &lt;a href=&quot;\nhttp://www.shotpix.com/images/14580071240276319612.png&quot; rel=&quot;nofollow&quot; target=&quot;_NEW&quot;&gt;\nhttp://www.shotpix.com/images/14580071240276319612.png&lt;/a&gt;","torrent":{"xt":"urn:btih:7cb272564a3991c950110c520602b2de6eeda982","amp;dn":"Hotel+Transylvania+2012+BDRip+XviD-ALLiANCE","amp;tr":["udp%3A%2F%2Ftracker.openbittorrent.com%3A80","udp%3A%2F%2Fopen.demonii.com%3A1337","udp%3A%2F%2Ftracker.coppersurfer.tk%3A6969","udp%3A%2F%2Fexodus.desync.com%3A6969"],"infoHash":"7cb272564a3991c950110c520602b2de6eeda982","infoHashBuffer":{"type":"Buffer","data":[124,178,114,86,74,57,145,201,80,17,12,82,6,2,178,222,110,237,169,130]},"announce":[],"urlList":[]}}